<?xml version="1.0" encoding="UTF-8" standalone="no"?>
<!-- Created with Inkscape (http://www.inkscape.org/) -->

<svg
   width="210mm"
   height="297mm"
   viewBox="0 0 210 297"
   version="1.1"
   id="svg1"
   inkscape:export-filename="bitmap.pdf"
   inkscape:export-xdpi="45.842056"
   inkscape:export-ydpi="45.842056"
   inkscape:version="1.4.4 (dcaf3e7d9e, 2026-05-05)"
   sodipodi:docname="drawing.svg"
   xmlns:inkscape="http://www.inkscape.org/namespaces/inkscape"
   xmlns:sodipodi="http://sodipodi.sourceforge.net/DTD/sodipodi-0.dtd"
   xmlns:xlink="http://www.w3.org/1999/xlink"
   xmlns="http://www.w3.org/2000/svg"
   xmlns:svg="http://www.w3.org/2000/svg">
  <sodipodi:namedview
     id="namedview1"
     pagecolor="#ffffff"
     bordercolor="#000000"
     borderopacity="0.25"
     inkscape:showpageshadow="2"
     inkscape:pageopacity="0.0"
     inkscape:pagecheckerboard="0"
     inkscape:deskcolor="#d1d1d1"
     inkscape:document-units="mm"
     inkscape:zoom="1.0690236"
     inkscape:cx="110.3811"
     inkscape:cy="558.45354"
     inkscape:window-width="2558"
     inkscape:window-height="1411"
     inkscape:window-x="0"
     inkscape:window-y="0"
     inkscape:window-maximized="1"
     inkscape:current-layer="layer1" />
  <defs
     id="defs1">
    <pattern
       inkscape:collect="always"
       xlink:href="#Strips1_2"
       preserveAspectRatio="xMidYMid"
       id="pattern21"
       patternTransform="matrix(1.3211482,1.0698446,-1.0698446,1.3211482,0,0)"
       x="0"
       y="0" />
    <pattern
       inkscape:collect="always"
       patternUnits="userSpaceOnUse"
       width="3"
       height="1"
       patternTransform="translate(0,0) scale(2,2)"
       preserveAspectRatio="xMidYMid"
       id="Strips1_2"
       style="fill:#000000"
       inkscape:stockid="Stripes 03 (1:2)"
       inkscape:isstock="true"
       inkscape:label="Stripes 03 (1:2)">
      <rect
         style="stroke:none"
         x="0"
         y="-0.5"
         width="1"
         height="2"
         id="rect146" />
    </pattern>
    <clipPath
       clipPathUnits="userSpaceOnUse"
       id="clipPath27">
      <rect
         style="fill:none;stroke:#000000;stroke-width:0.999999;stroke-linecap:butt;stroke-linejoin:bevel;paint-order:stroke markers fill;stop-color:#000000"
         id="rect28-6"
         width="46.160622"
         height="39.922417"
         x="86.574379"
         y="420.06253" />
    </clipPath>
    <clipPath
       clipPathUnits="userSpaceOnUse"
       id="clipPath14">
      <rect
         style="fill:none;stroke:#000000;stroke-linecap:butt;stroke-linejoin:bevel;paint-order:stroke markers fill;stop-color:#000000"
         id="rect14"
         width="45.034248"
         height="38.955639"
         x="262.48285"
         y="121.00073" />
    </clipPath>
    <clipPath
       clipPathUnits="userSpaceOnUse"
       id="clipPath15">
      <rect
         style="fill:none;stroke:#000000;stroke-linecap:butt;stroke-linejoin:bevel;paint-order:stroke markers fill;stop-color:#000000"
         id="rect15-7"
         width="45.034248"
         height="38.955639"
         x="262.48285"
         y="121.00073" />
    </clipPath>
    <linearGradient
       id="swatch11"
       inkscape:swatch="solid">
      <stop
         style="stop-color:#000000;stop-opacity:1;"
         offset="0"
         id="stop11" />
    </linearGradient>
    <marker
       style="overflow:visible"
       id="Triangle"
       refX="0"
       refY="0"
       orient="auto-start-reverse"
       inkscape:stockid="Triangle arrow"
       markerWidth="1"
       markerHeight="1"
       viewBox="0 0 1 1"
       inkscape:isstock="true"
       inkscape:collect="always"
       preserveAspectRatio="xMidYMid">
      <path
         transform="scale(0.5)"
         style="fill:context-stroke;fill-rule:evenodd;stroke:context-stroke;stroke-width:1pt"
         d="M 5.77,0 -2.88,5 V -5 Z"
         id="path135" />
    </marker>
    <g
       id="g6149">
      <g
         id="g7598">
        <path
           d="M 3.328125,-3.015625 C 3.390625,-3.265625 3.625,-4.1875 4.3125,-4.1875 c 0.046875,0 0.296875,0 0.5,0.125 C 4.53125,-4 4.34375,-3.765625 4.34375,-3.515625 c 0,0.15625 0.109375,0.34375 0.375,0.34375 0.21875,0 0.53125,-0.171875 0.53125,-0.578125 0,-0.515625 -0.578125,-0.65625 -0.921875,-0.65625 -0.578125,0 -0.921875,0.53125 -1.046875,0.75 -0.25,-0.65625 -0.78125,-0.75 -1.078125,-0.75 -1.03125,0 -1.609375,1.28125 -1.609375,1.53125 0,0.109375 0.109375,0.109375 0.125,0.109375 0.078125,0 0.109375,-0.03125 0.125,-0.109375 0.34375,-1.0625 1,-1.3125 1.34375,-1.3125 0.1875,0 0.53125,0.09375 0.53125,0.671875 0,0.3125 -0.171875,0.96875 -0.53125,2.375 -0.15625,0.609375 -0.515625,1.03125 -0.953125,1.03125 -0.0625,0 -0.28125,0 -0.5,-0.125 0.25,-0.0625 0.46875,-0.265625 0.46875,-0.546875 0,-0.265625 -0.21875,-0.34375 -0.359375,-0.34375 -0.3125,0 -0.546875,0.25 -0.546875,0.578125 0,0.453125 0.484375,0.65625 0.921875,0.65625 0.671875,0 1.03125,-0.703125 1.046875,-0.75 0.125,0.359375 0.484375,0.75 1.078125,0.75 1.03125,0 1.59375,-1.28125 1.59375,-1.53125 0,-0.109375 -0.078125,-0.109375 -0.109375,-0.109375 -0.09375,0 -0.109375,0.046875 -0.140625,0.109375 -0.328125,1.078125 -1,1.3125 -1.3125,1.3125 -0.390625,0 -0.546875,-0.3125 -0.546875,-0.65625 0,-0.21875 0.046875,-0.4375 0.15625,-0.875 z m 0,0"
           id="path1436" />
      </g>
    </g>
    <g
       id="g1837">
      <g
         id="g6657">
        <path
           d="m 5.4375,2.3125 c -0.5625,0.78125 -1.375,1.484375 -2.375,1.484375 -0.25,0 -1.25,-0.03125 -1.546875,-0.984375 C 1.5625,2.828125 1.671875,2.828125 1.71875,2.828125 2.328125,2.828125 2.75,2.296875 2.75,1.8125 2.75,1.34375 2.359375,1.171875 2.046875,1.171875 c -0.328125,0 -1.0625,0.25 -1.0625,1.265625 0,1.046875 0.890625,1.78125 2.078125,1.78125 2.0625,0 4.140625,-1.90625 4.71875,-4.203125 L 9.8125,-8.03125 c 0.015625,-0.109375 0.0625,-0.234375 0.0625,-0.359375 0,-0.3125 -0.25,-0.515625 -0.5625,-0.515625 -0.1875,0 -0.609375,0.09375 -0.78125,0.703125 L 7,-2.125 c -0.09375,0.375 -0.09375,0.40625 -0.265625,0.640625 -0.40625,0.578125 -1.09375,1.28125 -2.09375,1.28125 -1.15625,0 -1.25,-1.140625 -1.25,-1.703125 0,-1.171875 0.5625,-2.765625 1.109375,-4.25 0.234375,-0.59375 0.359375,-0.890625 0.359375,-1.296875 0,-0.875 -0.625,-1.65625 -1.640625,-1.65625 -1.890625,0 -2.65625,3 -2.65625,3.15625 0,0.09375 0.078125,0.1875 0.21875,0.1875 0.1875,0 0.203125,-0.078125 0.296875,-0.375 0.484375,-1.734375 1.28125,-2.5625 2.078125,-2.5625 0.1875,0 0.546875,0 0.546875,0.6875 0,0.53125 -0.234375,1.140625 -0.546875,1.921875 -1.015625,2.703125 -1.015625,3.390625 -1.015625,3.890625 0,1.953125 1.40625,2.40625 2.4375,2.40625 0.609375,0 1.34375,-0.1875 2.078125,-0.953125 l 0.015625,0.03125 C 6.359375,0.5 6.15625,1.296875 5.4375,2.3125 Z m 0,0"
           id="path6181" />
      </g>
    </g>
    <g
       id="g5638">
      <g
         id="g5978">
        <path
           d="m 9.796875,-8.421875 c -0.671875,0.125 -0.921875,0.609375 -0.921875,1 0,0.5 0.40625,0.671875 0.6875,0.671875 0.625,0 1.0625,-0.546875 1.0625,-1.09375 0,-0.875 -1,-1.265625 -1.859375,-1.265625 -1.265625,0 -1.96875,1.234375 -2.15625,1.625 -0.46875,-1.546875 -1.75,-1.625 -2.125,-1.625 -2.109375,0 -3.21875,2.703125 -3.21875,3.15625 0,0.09375 0.078125,0.1875 0.21875,0.1875 0.171875,0 0.203125,-0.125 0.25,-0.203125 0.703125,-2.296875 2.09375,-2.734375 2.6875,-2.734375 0.921875,0 1.109375,0.875 1.109375,1.375 0,0.453125 -0.125,0.921875 -0.359375,1.921875 L 4.46875,-2.578125 c -0.3125,1.234375 -0.921875,2.375 -2.015625,2.375 -0.09375,0 -0.609375,0 -1.046875,-0.265625 C 2.140625,-0.625 2.3125,-1.234375 2.3125,-1.484375 2.3125,-1.90625 2,-2.140625 1.609375,-2.140625 c -0.5,0 -1.03125,0.421875 -1.03125,1.09375 0,0.859375 0.96875,1.25 1.859375,1.25 0.984375,0 1.6875,-0.78125 2.125,-1.625 0.328125,1.21875 1.359375,1.625 2.125,1.625 2.109375,0 3.234375,-2.703125 3.234375,-3.15625 0,-0.109375 -0.09375,-0.1875 -0.21875,-0.1875 -0.1875,0 -0.203125,0.109375 -0.265625,0.265625 -0.5625,1.828125 -1.75,2.671875 -2.6875,2.671875 -0.71875,0 -1.109375,-0.546875 -1.109375,-1.390625 0,-0.453125 0.078125,-0.78125 0.40625,-2.140625 l 0.734375,-2.8125 c 0.296875,-1.234375 1,-2.15625 1.953125,-2.15625 0.046875,0 0.625,0 1.0625,0.28125 z m 0,0"
           id="path339" />
      </g>
    </g>
  </defs>
  <g
     inkscape:label="Layer 1"
     inkscape:groupmode="layer"
     id="layer1">
    <rect
       style="fill:#000000;stroke-width:0.264133"
       id="rect1"
       width="131.95673"
       height="1.2250625"
       x="39.552013"
       y="35.52681" />
    <path
       style="fill:#000000;fill-opacity:1;stroke:#000000;stroke-width:0.284747;stroke-dasharray:0.854241, 0.284747;stroke-dashoffset:0;stroke-opacity:1;marker-end:url(#Triangle)"
       d="M 10.325526,36.226848 H 197.23507"
       id="path6" />
    <path
       style="fill:#000000;fill-opacity:1;stroke:#000000;stroke-width:0.284747;stroke-dasharray:0.854241, 0.284747;stroke-dashoffset:0;stroke-opacity:1;marker-end:url(#Triangle)"
       d="M 103.54338,25.426497 V 212.33604"
       id="path10" />
    <rect
       style="fill:url(#pattern21);stroke-width:0.48;stroke:none;stroke-opacity:1;stroke-dasharray:none;opacity:0.59766485"
       id="rect10"
       width="131.95673"
       height="10.675545"
       x="39.552013"
       y="25.026276" />
    <path
       style="opacity:1;fill:none;fill-opacity:1;stroke:#000000;stroke-width:0.9;stroke-dasharray:none;stroke-dashoffset:0;stroke-opacity:1"
       d="m 103.16891,36.1187 c 0,0 30.28454,75.25523 25.26809,161.15512"
       id="path22" />
    <g
       inkscape:label=""
       transform="translate(193.2975,40.342)"
       id="g24">
      <g
         fill="#000000"
         fill-opacity="1"
         id="g2-1"
         transform="matrix(0.352778,0,0,0.352778,-0.901524,-0.627812)">
        <g
           id="use1-1"
           transform="translate(1.993,10.889)">
          <path
             d="m 5.4375,2.3125 c -0.5625,0.78125 -1.375,1.484375 -2.375,1.484375 -0.25,0 -1.25,-0.03125 -1.546875,-0.984375 C 1.5625,2.828125 1.671875,2.828125 1.71875,2.828125 2.328125,2.828125 2.75,2.296875 2.75,1.8125 2.75,1.34375 2.359375,1.171875 2.046875,1.171875 c -0.328125,0 -1.0625,0.25 -1.0625,1.265625 0,1.046875 0.890625,1.78125 2.078125,1.78125 2.0625,0 4.140625,-1.90625 4.71875,-4.203125 L 9.8125,-8.03125 c 0.015625,-0.109375 0.0625,-0.234375 0.0625,-0.359375 0,-0.3125 -0.25,-0.515625 -0.5625,-0.515625 -0.1875,0 -0.609375,0.09375 -0.78125,0.703125 L 7,-2.125 c -0.09375,0.375 -0.09375,0.40625 -0.265625,0.640625 -0.40625,0.578125 -1.09375,1.28125 -2.09375,1.28125 -1.15625,0 -1.25,-1.140625 -1.25,-1.703125 0,-1.171875 0.5625,-2.765625 1.109375,-4.25 0.234375,-0.59375 0.359375,-0.890625 0.359375,-1.296875 0,-0.875 -0.625,-1.65625 -1.640625,-1.65625 -1.890625,0 -2.65625,3 -2.65625,3.15625 0,0.09375 0.078125,0.1875 0.21875,0.1875 0.1875,0 0.203125,-0.078125 0.296875,-0.375 0.484375,-1.734375 1.28125,-2.5625 2.078125,-2.5625 0.1875,0 0.546875,0 0.546875,0.6875 0,0.53125 -0.234375,1.140625 -0.546875,1.921875 -1.015625,2.703125 -1.015625,3.390625 -1.015625,3.890625 0,1.953125 1.40625,2.40625 2.4375,2.40625 0.609375,0 1.34375,-0.1875 2.078125,-0.953125 l 0.015625,0.03125 C 6.359375,0.5 6.15625,1.296875 5.4375,2.3125 Z m 0,0"
             id="path2-1" />
        </g>
      </g>
    </g>
    <g
       inkscape:label=""
       transform="translate(109.89,210.127)"
       id="g25">
      <g
         fill="#000000"
         fill-opacity="1"
         id="g2"
         transform="matrix(0.352778,0,0,0.352778,-0.907036,-0.627459)">
        <g
           id="use1"
           transform="translate(1.993,10.888)">
          <path
             d="m 9.796875,-8.421875 c -0.671875,0.125 -0.921875,0.609375 -0.921875,1 0,0.5 0.40625,0.671875 0.6875,0.671875 0.625,0 1.0625,-0.546875 1.0625,-1.09375 0,-0.875 -1,-1.265625 -1.859375,-1.265625 -1.265625,0 -1.96875,1.234375 -2.15625,1.625 -0.46875,-1.546875 -1.75,-1.625 -2.125,-1.625 -2.109375,0 -3.21875,2.703125 -3.21875,3.15625 0,0.09375 0.078125,0.1875 0.21875,0.1875 0.171875,0 0.203125,-0.125 0.25,-0.203125 0.703125,-2.296875 2.09375,-2.734375 2.6875,-2.734375 0.921875,0 1.109375,0.875 1.109375,1.375 0,0.453125 -0.125,0.921875 -0.359375,1.921875 L 4.46875,-2.578125 c -0.3125,1.234375 -0.921875,2.375 -2.015625,2.375 -0.09375,0 -0.609375,0 -1.046875,-0.265625 C 2.140625,-0.625 2.3125,-1.234375 2.3125,-1.484375 2.3125,-1.90625 2,-2.140625 1.609375,-2.140625 c -0.5,0 -1.03125,0.421875 -1.03125,1.09375 0,0.859375 0.96875,1.25 1.859375,1.25 0.984375,0 1.6875,-0.78125 2.125,-1.625 0.328125,1.21875 1.359375,1.625 2.125,1.625 2.109375,0 3.234375,-2.703125 3.234375,-3.15625 0,-0.109375 -0.09375,-0.1875 -0.21875,-0.1875 -0.1875,0 -0.203125,0.109375 -0.265625,0.265625 -0.5625,1.828125 -1.75,2.671875 -2.6875,2.671875 -0.71875,0 -1.109375,-0.546875 -1.109375,-1.390625 0,-0.453125 0.078125,-0.78125 0.40625,-2.140625 l 0.734375,-2.8125 c 0.296875,-1.234375 1,-2.15625 1.953125,-2.15625 0.046875,0 0.625,0 1.0625,0.28125 z m 0,0"
             id="path2" />
        </g>
      </g>
    </g>
  </g>
</svg>
